<?xml version="1.0" encoding="UTF-8"?>
<!DOCTYPE svg PUBLIC "-//W3C//DTD SVG 1.1//EN" "http://www.w3.org/Graphics/SVG/1.1/DTD/svg11.dtd">
<!-- Creator: CorelDRAW -->
<svg xmlns="http://www.w3.org/2000/svg" xml:space="preserve" width="18.8915mm" height="188.983mm" version="1.1" style="shape-rendering:geometricPrecision; text-rendering:geometricPrecision; image-rendering:optimizeQuality; fill-rule:evenodd; clip-rule:evenodd"
viewBox="0 0 31.87 318.83"
 xmlns:xlink="http://www.w3.org/1999/xlink"
 xmlns:xodm="http://www.corel.com/coreldraw/odm/2003">
 <defs>
  <style type="text/css">
   <![CDATA[
    .str0 {stroke:#373435;stroke-width:0.17;stroke-miterlimit:22.9256}
    .fil0 {fill:none}
    .fil1 {fill:#D2D3D5}
   ]]>
  </style>
 </defs>
 <g id="Capa_x0020_1">
  <metadata id="CorelCorpID_0Corel-Layer"/>
  <rect class="fil0" y="0.03" width="31.87" height="318.72"/>
  <g id="_1472117325168">
   <polygon class="fil1 str0" points="23.88,318.23 7.93,318.23 7.93,283.81 23.88,283.81 "/>
   <polygon class="fil1 str0" points="7.48,318.74 9.21,318.74 9.21,318.26 7.95,318.27 7.95,317.01 7.48,317.01 "/>
   <polygon class="fil1 str0" points="24.35,318.74 22.62,318.74 22.62,318.25 23.88,318.26 23.88,317.01 24.35,317.01 "/>
   <polygon class="fil1 str0" points="7.48,283.33 9.21,283.33 9.21,283.82 7.95,283.81 7.95,285.06 7.48,285.06 "/>
   <polygon class="fil1 str0" points="24.35,283.33 22.62,283.33 22.62,283.82 23.88,283.81 23.88,285.06 24.35,285.06 "/>
   <polygon class="fil1 str0" points="23.88,317.01 24.21,317.01 24.21,285.06 23.88,285.06 "/>
   <polygon class="fil1 str0" points="7.6,317.01 7.93,317.01 7.93,285.06 7.6,285.06 "/>
   <polygon class="fil1 str0" points="22.62,283.82 22.62,283.49 9.21,283.49 9.21,283.82 "/>
   <polygon class="fil1 str0" points="22.62,318.59 22.62,318.25 9.21,318.25 9.21,318.59 "/>
  </g>
  <g id="_1472117327376">
   <polygon class="fil1 str0" points="23.88,282.83 7.93,282.83 7.93,248.4 23.88,248.4 "/>
   <polygon class="fil1 str0" points="7.48,283.34 9.21,283.34 9.21,282.85 7.95,282.86 7.95,281.61 7.48,281.61 "/>
   <polygon class="fil1 str0" points="24.35,283.33 22.62,283.33 22.62,282.85 23.88,282.86 23.88,281.61 24.35,281.61 "/>
   <polygon class="fil1 str0" points="7.48,247.93 9.21,247.93 9.21,248.41 7.95,248.4 7.95,249.65 7.48,249.65 "/>
   <polygon class="fil1 str0" points="24.35,247.93 22.62,247.93 22.62,248.41 23.88,248.4 23.88,249.66 24.35,249.66 "/>
   <polygon class="fil1 str0" points="23.88,281.61 24.21,281.61 24.21,249.65 23.88,249.65 "/>
   <polygon class="fil1 str0" points="7.6,281.61 7.93,281.61 7.93,249.65 7.6,249.65 "/>
   <polygon class="fil1 str0" points="22.62,248.41 22.62,248.08 9.21,248.08 9.21,248.41 "/>
   <polygon class="fil1 str0" points="22.62,283.18 22.62,282.85 9.21,282.85 9.21,283.18 "/>
  </g>
  <g id="_1472117329344">
   <polygon class="fil1 str0" points="23.88,247.42 7.93,247.42 7.93,213 23.88,213 "/>
   <polygon class="fil1 str0" points="7.48,247.93 9.21,247.93 9.21,247.44 7.95,247.45 7.95,246.2 7.48,246.2 "/>
   <polygon class="fil1 str0" points="24.35,247.93 22.62,247.93 22.62,247.44 23.88,247.45 23.88,246.2 24.35,246.2 "/>
   <polygon class="fil1 str0" points="7.48,212.52 9.21,212.52 9.21,213.01 7.95,213 7.95,214.25 7.48,214.25 "/>
   <polygon class="fil1 str0" points="24.35,212.52 22.62,212.52 22.62,213.01 23.88,213 23.88,214.25 24.35,214.25 "/>
   <polygon class="fil1 str0" points="23.88,246.2 24.21,246.2 24.21,214.25 23.88,214.25 "/>
   <polygon class="fil1 str0" points="7.6,246.2 7.93,246.2 7.93,214.25 7.6,214.25 "/>
   <polygon class="fil1 str0" points="22.62,213.01 22.62,212.68 9.21,212.68 9.21,213.01 "/>
   <polygon class="fil1 str0" points="22.62,247.77 22.62,247.44 9.21,247.44 9.21,247.77 "/>
  </g>
  <g id="_1472117333952">
   <polygon class="fil1 str0" points="23.88,212.01 7.93,212.01 7.93,177.59 23.88,177.59 "/>
   <polygon class="fil1 str0" points="7.48,212.52 9.21,212.52 9.21,212.04 7.95,212.05 7.95,210.8 7.48,210.8 "/>
   <polygon class="fil1 str0" points="24.35,212.52 22.62,212.52 22.62,212.04 23.88,212.05 23.88,210.79 24.35,210.79 "/>
   <polygon class="fil1 str0" points="7.48,177.11 9.21,177.11 9.21,177.6 7.95,177.59 7.95,178.84 7.48,178.84 "/>
   <polygon class="fil1 str0" points="24.35,177.12 22.62,177.12 22.62,177.6 23.88,177.59 23.88,178.84 24.35,178.84 "/>
   <polygon class="fil1 str0" points="23.88,210.8 24.21,210.8 24.21,178.84 23.88,178.84 "/>
   <polygon class="fil1 str0" points="7.6,210.8 7.93,210.8 7.93,178.84 7.6,178.84 "/>
   <polygon class="fil1 str0" points="22.62,177.6 22.62,177.27 9.21,177.27 9.21,177.6 "/>
   <polygon class="fil1 str0" points="22.62,212.37 22.62,212.04 9.21,212.04 9.21,212.37 "/>
  </g>
  <g id="_1472117340144">
   <polygon class="fil1 str0" points="23.88,176.61 7.93,176.61 7.93,142.19 23.88,142.19 "/>
   <polygon class="fil1 str0" points="7.48,177.12 9.21,177.12 9.21,176.63 7.95,176.64 7.95,175.39 7.48,175.39 "/>
   <polygon class="fil1 str0" points="24.35,177.12 22.62,177.12 22.62,176.63 23.88,176.64 23.88,175.39 24.35,175.39 "/>
   <polygon class="fil1 str0" points="7.48,141.71 9.21,141.71 9.21,142.19 7.95,142.18 7.95,143.44 7.48,143.44 "/>
   <polygon class="fil1 str0" points="24.35,141.71 22.62,141.71 22.62,142.2 23.88,142.19 23.88,143.44 24.35,143.44 "/>
   <polygon class="fil1 str0" points="23.88,175.39 24.21,175.39 24.21,143.44 23.88,143.44 "/>
   <polygon class="fil1 str0" points="7.6,175.39 7.93,175.39 7.93,143.44 7.6,143.44 "/>
   <polygon class="fil1 str0" points="22.62,142.2 22.62,141.86 9.21,141.86 9.21,142.2 "/>
   <polygon class="fil1 str0" points="22.62,176.96 22.62,176.63 9.21,176.63 9.21,176.96 "/>
  </g>
  <g id="_1472117342208">
   <polygon class="fil1 str0" points="23.88,141.2 7.93,141.2 7.93,106.78 23.88,106.78 "/>
   <polygon class="fil1 str0" points="7.48,141.71 9.21,141.71 9.21,141.23 7.95,141.24 7.95,139.98 7.48,139.98 "/>
   <polygon class="fil1 str0" points="24.35,141.71 22.62,141.71 22.62,141.22 23.88,141.23 23.88,139.98 24.35,139.98 "/>
   <polygon class="fil1 str0" points="7.48,106.3 9.21,106.3 9.21,106.79 7.95,106.78 7.95,108.03 7.48,108.03 "/>
   <polygon class="fil1 str0" points="24.35,106.3 22.62,106.3 22.62,106.79 23.88,106.78 23.88,108.03 24.35,108.03 "/>
   <polygon class="fil1 str0" points="23.88,139.98 24.21,139.98 24.21,108.03 23.88,108.03 "/>
   <polygon class="fil1 str0" points="7.6,139.98 7.93,139.98 7.93,108.03 7.6,108.03 "/>
   <polygon class="fil1 str0" points="22.62,106.79 22.62,106.46 9.21,106.46 9.21,106.79 "/>
   <polygon class="fil1 str0" points="22.62,141.56 22.62,141.22 9.21,141.22 9.21,141.56 "/>
  </g>
  <g id="_1472117345472">
   <polygon class="fil1 str0" points="23.88,105.8 7.93,105.8 7.93,71.37 23.88,71.37 "/>
   <polygon class="fil1 str0" points="7.48,106.31 9.21,106.31 9.21,105.82 7.95,105.83 7.95,104.58 7.48,104.58 "/>
   <polygon class="fil1 str0" points="24.35,106.3 22.62,106.3 22.62,105.82 23.88,105.83 23.88,104.58 24.35,104.58 "/>
   <polygon class="fil1 str0" points="7.48,70.9 9.21,70.9 9.21,71.38 7.95,71.37 7.95,72.62 7.48,72.62 "/>
   <polygon class="fil1 str0" points="24.35,70.9 22.62,70.9 22.62,71.38 23.88,71.37 23.88,72.63 24.35,72.63 "/>
   <polygon class="fil1 str0" points="23.88,104.58 24.21,104.58 24.21,72.62 23.88,72.62 "/>
   <polygon class="fil1 str0" points="7.6,104.58 7.93,104.58 7.93,72.62 7.6,72.62 "/>
   <polygon class="fil1 str0" points="22.62,71.38 22.62,71.05 9.21,71.05 9.21,71.38 "/>
   <polygon class="fil1 str0" points="22.62,106.15 22.62,105.82 9.21,105.82 9.21,106.15 "/>
  </g>
  <g id="_1472117344272">
   <polygon class="fil1 str0" points="23.88,70.39 7.93,70.39 7.93,35.97 23.88,35.97 "/>
   <polygon class="fil1 str0" points="7.48,70.9 9.21,70.9 9.21,70.41 7.95,70.42 7.95,69.17 7.48,69.17 "/>
   <polygon class="fil1 str0" points="24.35,70.9 22.62,70.9 22.62,70.41 23.88,70.42 23.88,69.17 24.35,69.17 "/>
   <polygon class="fil1 str0" points="7.48,35.49 9.21,35.49 9.21,35.98 7.95,35.97 7.95,37.22 7.48,37.22 "/>
   <polygon class="fil1 str0" points="24.35,35.49 22.62,35.49 22.62,35.98 23.88,35.97 23.88,37.22 24.35,37.22 "/>
   <polygon class="fil1 str0" points="23.88,69.17 24.21,69.17 24.21,37.22 23.88,37.22 "/>
   <polygon class="fil1 str0" points="7.6,69.17 7.93,69.17 7.93,37.22 7.6,37.22 "/>
   <polygon class="fil1 str0" points="22.62,35.98 22.62,35.65 9.21,35.65 9.21,35.98 "/>
   <polygon class="fil1 str0" points="22.62,70.74 22.62,70.41 9.21,70.41 9.21,70.74 "/>
  </g>
  <g id="_1472117348832">
   <polygon class="fil1 str0" points="23.88,34.98 7.93,34.98 7.93,0.56 23.88,0.56 "/>
   <polygon class="fil1 str0" points="7.48,35.49 9.21,35.49 9.21,35.01 7.95,35.02 7.95,33.77 7.48,33.77 "/>
   <polygon class="fil1 str0" points="24.35,35.49 22.62,35.49 22.62,35.01 23.88,35.02 23.88,33.76 24.35,33.76 "/>
   <polygon class="fil1 str0" points="7.48,0.08 9.21,0.08 9.21,0.57 7.95,0.56 7.95,1.81 7.48,1.81 "/>
   <polygon class="fil1 str0" points="24.35,0.09 22.62,0.09 22.62,0.57 23.88,0.56 23.88,1.81 24.35,1.81 "/>
   <polygon class="fil1 str0" points="23.88,33.77 24.21,33.77 24.21,1.81 23.88,1.81 "/>
   <polygon class="fil1 str0" points="7.6,33.77 7.93,33.77 7.93,1.81 7.6,1.81 "/>
   <polygon class="fil1 str0" points="22.62,0.57 22.62,0.24 9.21,0.24 9.21,0.57 "/>
   <polygon class="fil1 str0" points="22.62,35.34 22.62,35.01 9.21,35.01 9.21,35.34 "/>
  </g>
 </g>
</svg>
