<?xml version="1.0" encoding="UTF-8"?>
<!DOCTYPE svg PUBLIC "-//W3C//DTD SVG 1.1//EN" "http://www.w3.org/Graphics/SVG/1.1/DTD/svg11.dtd">
<!-- Creator: CorelDRAW -->
<svg xmlns="http://www.w3.org/2000/svg" xml:space="preserve" width="18.8915mm" height="188.917mm" version="1.1" style="shape-rendering:geometricPrecision; text-rendering:geometricPrecision; image-rendering:optimizeQuality; fill-rule:evenodd; clip-rule:evenodd"
viewBox="0 0 31.87 318.73"
 xmlns:xlink="http://www.w3.org/1999/xlink"
 xmlns:xodm="http://www.corel.com/coreldraw/odm/2003">
 <defs>
  <style type="text/css">
   <![CDATA[
    .str1 {stroke:#737273;stroke-width:0.34;stroke-miterlimit:22.9256}
    .str0 {stroke:#737273;stroke-width:0.3;stroke-miterlimit:22.9256}
    .fil0 {fill:none}
    .fil2 {fill:#E6E7E8}
    .fil1 {fill:#D2D3D5}
   ]]>
  </style>
 </defs>
 <g id="Capa_x0020_1">
  <metadata id="CorelCorpID_0Corel-Layer"/>
  <rect class="fil0" width="31.87" height="318.73"/>
  <g id="_1521427750912">
   <g>
    <polygon class="fil1 str0" points="6.11,33.45 6.57,33.45 6.57,2.78 6.11,2.78 "/>
    <polygon class="fil1 str0" points="5.91,33.45 6.57,33.45 6.57,35.19 8.31,35.19 8.31,35.85 6.57,35.85 5.91,35.85 5.91,35.19 "/>
    <polygon class="fil1 str0" points="5.91,2.78 6.57,2.78 6.57,1.03 8.31,1.03 8.31,0.38 6.57,0.38 5.91,0.38 5.91,1.03 "/>
    <polygon class="fil1 str0" points="23.67,35.64 23.67,35.19 8.31,35.19 8.31,35.64 "/>
    <polygon class="fil1 str0" points="23.67,1.03 23.67,0.58 8.31,0.58 8.31,1.03 "/>
    <polygon class="fil1 str0" points="25.87,33.45 25.42,33.45 25.42,2.78 25.87,2.78 "/>
    <polygon class="fil1 str0" points="26.07,33.45 25.42,33.45 25.42,35.19 23.67,35.19 23.67,35.85 25.42,35.85 26.07,35.85 26.07,35.19 "/>
    <polygon class="fil1 str0" points="26.07,2.78 25.42,2.78 25.42,1.03 23.67,1.03 23.67,0.38 25.42,0.38 26.07,0.38 26.07,1.03 "/>
    <rect class="fil2 str1" x="6.57" y="1.03" width="18.85" height="34.16"/>
   </g>
   <g>
    <polygon class="fil1 str0" points="6.11,68.59 6.57,68.59 6.57,37.92 6.11,37.92 "/>
    <polygon class="fil1 str0" points="5.91,68.59 6.57,68.59 6.57,70.33 8.31,70.33 8.31,70.99 6.57,70.99 5.91,70.99 5.91,70.33 "/>
    <polygon class="fil1 str0" points="5.91,37.92 6.57,37.92 6.57,36.17 8.31,36.17 8.31,35.52 6.57,35.52 5.91,35.52 5.91,36.17 "/>
    <polygon class="fil1 str0" points="23.67,70.79 23.67,70.33 8.31,70.33 8.31,70.79 "/>
    <polygon class="fil1 str0" points="23.67,36.17 23.67,35.72 8.31,35.72 8.31,36.17 "/>
    <polygon class="fil1 str0" points="25.87,68.59 25.42,68.59 25.42,37.92 25.87,37.92 "/>
    <polygon class="fil1 str0" points="26.07,68.59 25.42,68.59 25.42,70.33 23.67,70.33 23.67,70.99 25.42,70.99 26.07,70.99 26.07,70.33 "/>
    <polygon class="fil1 str0" points="26.07,37.92 25.42,37.92 25.42,36.17 23.67,36.17 23.67,35.52 25.42,35.52 26.07,35.52 26.07,36.17 "/>
    <rect class="fil2 str1" x="6.57" y="36.17" width="18.85" height="34.16"/>
   </g>
   <g>
    <polygon class="fil1 str0" points="6,104.06 6.46,104.06 6.46,73.39 6,73.39 "/>
    <polygon class="fil1 str0" points="5.8,104.06 6.46,104.06 6.46,105.8 8.2,105.8 8.2,106.46 6.46,106.46 5.8,106.46 5.8,105.8 "/>
    <polygon class="fil1 str0" points="5.8,73.39 6.46,73.39 6.46,71.64 8.2,71.64 8.2,70.99 6.46,70.99 5.8,70.99 5.8,71.64 "/>
    <polygon class="fil1 str0" points="23.56,106.25 23.56,105.8 8.2,105.8 8.2,106.25 "/>
    <polygon class="fil1 str0" points="23.56,71.64 23.56,71.19 8.2,71.19 8.2,71.64 "/>
    <polygon class="fil1 str0" points="25.76,104.06 25.3,104.06 25.3,73.39 25.76,73.39 "/>
    <polygon class="fil1 str0" points="25.96,104.06 25.3,104.06 25.3,105.8 23.56,105.8 23.56,106.46 25.3,106.46 25.96,106.46 25.96,105.8 "/>
    <polygon class="fil1 str0" points="25.96,73.39 25.3,73.39 25.3,71.64 23.56,71.64 23.56,70.99 25.3,70.99 25.96,70.99 25.96,71.64 "/>
    <rect class="fil2 str1" x="6.46" y="71.64" width="18.85" height="34.16"/>
   </g>
   <g>
    <polygon class="fil1 str0" points="6,139.2 6.46,139.2 6.46,108.53 6,108.53 "/>
    <polygon class="fil1 str0" points="5.8,139.2 6.46,139.2 6.46,140.94 8.2,140.94 8.2,141.6 6.46,141.6 5.8,141.6 5.8,140.94 "/>
    <polygon class="fil1 str0" points="5.8,108.53 6.46,108.53 6.46,106.78 8.2,106.78 8.2,106.13 6.46,106.13 5.8,106.13 5.8,106.78 "/>
    <polygon class="fil1 str0" points="23.56,141.4 23.56,140.94 8.2,140.94 8.2,141.4 "/>
    <polygon class="fil1 str0" points="23.56,106.78 23.56,106.33 8.2,106.33 8.2,106.78 "/>
    <polygon class="fil1 str0" points="25.76,139.2 25.3,139.2 25.3,108.53 25.76,108.53 "/>
    <polygon class="fil1 str0" points="25.96,139.2 25.3,139.2 25.3,140.94 23.56,140.94 23.56,141.6 25.3,141.6 25.96,141.6 25.96,140.94 "/>
    <polygon class="fil1 str0" points="25.96,108.53 25.3,108.53 25.3,106.78 23.56,106.78 23.56,106.13 25.3,106.13 25.96,106.13 25.96,106.78 "/>
    <rect class="fil2 str1" x="6.46" y="106.78" width="18.85" height="34.16"/>
   </g>
   <g>
    <polygon class="fil1 str0" points="6,174.67 6.46,174.67 6.46,144 6,144 "/>
    <polygon class="fil1 str0" points="5.8,174.67 6.46,174.67 6.46,176.41 8.2,176.41 8.2,177.07 6.46,177.07 5.8,177.07 5.8,176.41 "/>
    <polygon class="fil1 str0" points="5.8,144 6.46,144 6.46,142.25 8.2,142.25 8.2,141.6 6.46,141.6 5.8,141.6 5.8,142.25 "/>
    <polygon class="fil1 str0" points="23.56,176.86 23.56,176.41 8.2,176.41 8.2,176.86 "/>
    <polygon class="fil1 str0" points="23.56,142.25 23.56,141.8 8.2,141.8 8.2,142.25 "/>
    <polygon class="fil1 str0" points="25.76,174.67 25.3,174.67 25.3,144 25.76,144 "/>
    <polygon class="fil1 str0" points="25.96,174.67 25.3,174.67 25.3,176.41 23.56,176.41 23.56,177.07 25.3,177.07 25.96,177.07 25.96,176.41 "/>
    <polygon class="fil1 str0" points="25.96,144 25.3,144 25.3,142.25 23.56,142.25 23.56,141.6 25.3,141.6 25.96,141.6 25.96,142.25 "/>
    <rect class="fil2 str1" x="6.46" y="142.25" width="18.85" height="34.16"/>
   </g>
   <g>
    <polygon class="fil1 str0" points="6,209.81 6.46,209.81 6.46,179.14 6,179.14 "/>
    <polygon class="fil1 str0" points="5.8,209.81 6.46,209.81 6.46,211.55 8.2,211.55 8.2,212.21 6.46,212.21 5.8,212.21 5.8,211.55 "/>
    <polygon class="fil1 str0" points="5.8,179.14 6.46,179.14 6.46,177.39 8.2,177.39 8.2,176.74 6.46,176.74 5.8,176.74 5.8,177.39 "/>
    <polygon class="fil1 str0" points="23.56,212 23.56,211.55 8.2,211.55 8.2,212 "/>
    <polygon class="fil1 str0" points="23.56,177.39 23.56,176.94 8.2,176.94 8.2,177.39 "/>
    <polygon class="fil1 str0" points="25.76,209.81 25.3,209.81 25.3,179.14 25.76,179.14 "/>
    <polygon class="fil1 str0" points="25.96,209.81 25.3,209.81 25.3,211.55 23.56,211.55 23.56,212.21 25.3,212.21 25.96,212.21 25.96,211.55 "/>
    <polygon class="fil1 str0" points="25.96,179.14 25.3,179.14 25.3,177.39 23.56,177.39 23.56,176.74 25.3,176.74 25.96,176.74 25.96,177.39 "/>
    <rect class="fil2 str1" x="6.46" y="177.39" width="18.85" height="34.16"/>
   </g>
   <g>
    <polygon class="fil1 str0" points="6,245.28 6.46,245.28 6.46,214.61 6,214.61 "/>
    <polygon class="fil1 str0" points="5.8,245.28 6.46,245.28 6.46,247.02 8.2,247.02 8.2,247.68 6.46,247.68 5.8,247.68 5.8,247.02 "/>
    <polygon class="fil1 str0" points="5.8,214.61 6.46,214.61 6.46,212.86 8.2,212.86 8.2,212.21 6.46,212.21 5.8,212.21 5.8,212.86 "/>
    <polygon class="fil1 str0" points="23.56,247.47 23.56,247.02 8.2,247.02 8.2,247.47 "/>
    <polygon class="fil1 str0" points="23.56,212.86 23.56,212.41 8.2,212.41 8.2,212.86 "/>
    <polygon class="fil1 str0" points="25.76,245.28 25.3,245.28 25.3,214.61 25.76,214.61 "/>
    <polygon class="fil1 str0" points="25.96,245.28 25.3,245.28 25.3,247.02 23.56,247.02 23.56,247.68 25.3,247.68 25.96,247.68 25.96,247.02 "/>
    <polygon class="fil1 str0" points="25.96,214.61 25.3,214.61 25.3,212.86 23.56,212.86 23.56,212.21 25.3,212.21 25.96,212.21 25.96,212.86 "/>
    <rect class="fil2 str1" x="6.46" y="212.86" width="18.85" height="34.16"/>
   </g>
   <g>
    <polygon class="fil1 str0" points="6,280.42 6.46,280.42 6.46,249.75 6,249.75 "/>
    <polygon class="fil1 str0" points="5.8,280.42 6.46,280.42 6.46,282.16 8.2,282.16 8.2,282.82 6.46,282.82 5.8,282.82 5.8,282.16 "/>
    <polygon class="fil1 str0" points="5.8,249.75 6.46,249.75 6.46,248 8.2,248 8.2,247.35 6.46,247.35 5.8,247.35 5.8,248 "/>
    <polygon class="fil1 str0" points="23.56,282.61 23.56,282.16 8.2,282.16 8.2,282.61 "/>
    <polygon class="fil1 str0" points="23.56,248 23.56,247.55 8.2,247.55 8.2,248 "/>
    <polygon class="fil1 str0" points="25.76,280.42 25.3,280.42 25.3,249.75 25.76,249.75 "/>
    <polygon class="fil1 str0" points="25.96,280.42 25.3,280.42 25.3,282.16 23.56,282.16 23.56,282.82 25.3,282.82 25.96,282.82 25.96,282.16 "/>
    <polygon class="fil1 str0" points="25.96,249.75 25.3,249.75 25.3,248 23.56,248 23.56,247.35 25.3,247.35 25.96,247.35 25.96,248 "/>
    <rect class="fil2 str1" x="6.46" y="248" width="18.85" height="34.16"/>
   </g>
   <g>
    <polygon class="fil1 str0" points="6,315.89 6.46,315.89 6.46,285.21 6,285.21 "/>
    <polygon class="fil1 str0" points="5.8,315.89 6.46,315.89 6.46,317.63 8.2,317.63 8.2,318.29 6.46,318.29 5.8,318.29 5.8,317.63 "/>
    <polygon class="fil1 str0" points="5.8,285.21 6.46,285.21 6.46,283.47 8.2,283.47 8.2,282.82 6.46,282.82 5.8,282.82 5.8,283.47 "/>
    <polygon class="fil1 str0" points="23.56,318.08 23.56,317.63 8.2,317.63 8.2,318.08 "/>
    <polygon class="fil1 str0" points="23.56,283.47 23.56,283.02 8.2,283.02 8.2,283.47 "/>
    <polygon class="fil1 str0" points="25.76,315.89 25.3,315.89 25.3,285.21 25.76,285.21 "/>
    <polygon class="fil1 str0" points="25.96,315.89 25.3,315.89 25.3,317.63 23.56,317.63 23.56,318.29 25.3,318.29 25.96,318.29 25.96,317.63 "/>
    <polygon class="fil1 str0" points="25.96,285.21 25.3,285.21 25.3,283.47 23.56,283.47 23.56,282.82 25.3,282.82 25.96,282.82 25.96,283.47 "/>
    <rect class="fil2 str1" x="6.46" y="283.47" width="18.85" height="34.16"/>
   </g>
  </g>
 </g>
</svg>
