<?xml version="1.0" encoding="UTF-8"?>
<!DOCTYPE svg PUBLIC "-//W3C//DTD SVG 1.1//EN" "http://www.w3.org/Graphics/SVG/1.1/DTD/svg11.dtd">
<!-- Creator: CorelDRAW -->
<svg xmlns="http://www.w3.org/2000/svg" xml:space="preserve" width="10.1015mm" height="21.0884mm" version="1.1" style="shape-rendering:geometricPrecision; text-rendering:geometricPrecision; image-rendering:optimizeQuality; fill-rule:evenodd; clip-rule:evenodd"
viewBox="0 0 10.39 21.69"
 xmlns:xlink="http://www.w3.org/1999/xlink"
 xmlns:xodm="http://www.corel.com/coreldraw/odm/2003">
 <defs>
  <style type="text/css">
   <![CDATA[
    .str0 {stroke:#373435;stroke-width:0.1;stroke-miterlimit:22.9256}
    .fil0 {fill:#D2D3D5}
   ]]>
  </style>
 </defs>
 <g id="Capa_x0020_1">
  <metadata id="CorelCorpID_0Corel-Layer"/>
  <g id="_1522267644544">
   <polygon class="fil0 str0" points="10.05,21.33 0.33,21.33 0.33,0.34 10.05,0.34 "/>
   <polygon class="fil0 str0" points="0.05,21.64 1.1,21.64 1.1,21.34 0.34,21.35 0.34,20.58 0.05,20.58 "/>
   <polygon class="fil0 str0" points="10.34,21.64 9.28,21.64 9.28,21.34 10.05,21.35 10.05,20.58 10.34,20.58 "/>
   <polygon class="fil0 str0" points="0.05,0.05 1.1,0.05 1.1,0.35 0.34,0.34 0.34,1.1 0.05,1.1 "/>
   <polygon class="fil0 str0" points="10.34,0.05 9.28,0.05 9.28,0.35 10.05,0.34 10.05,1.11 10.34,1.11 "/>
   <polygon class="fil0 str0" points="10.05,20.58 10.25,20.58 10.25,1.1 10.05,1.1 "/>
   <polygon class="fil0 str0" points="0.13,20.58 0.33,20.58 0.33,1.1 0.13,1.1 "/>
   <polygon class="fil0 str0" points="9.28,0.35 9.28,0.15 1.1,0.15 1.1,0.35 "/>
   <polygon class="fil0 str0" points="9.28,21.54 9.28,21.34 1.1,21.34 1.1,21.54 "/>
  </g>
 </g>
</svg>
