<?xml version="1.0" encoding="UTF-8"?>
<!DOCTYPE svg PUBLIC "-//W3C//DTD SVG 1.1//EN" "http://www.w3.org/Graphics/SVG/1.1/DTD/svg11.dtd">
<!-- Creator: CorelDRAW -->
<svg xmlns="http://www.w3.org/2000/svg" xml:space="preserve" width="186.676mm" height="18.6527mm" version="1.1" style="shape-rendering:geometricPrecision; text-rendering:geometricPrecision; image-rendering:optimizeQuality; fill-rule:evenodd; clip-rule:evenodd"
viewBox="0 0 1958.03 195.65"
 xmlns:xlink="http://www.w3.org/1999/xlink"
 xmlns:xodm="http://www.corel.com/coreldraw/odm/2003">
 <defs>
  <style type="text/css">
   <![CDATA[
    .str0 {stroke:#373435;stroke-width:2.1;stroke-miterlimit:22.9256}
    .fil0 {fill:none}
    .fil1 {fill:#E6E7E8}
   ]]>
  </style>
 </defs>
 <g id="Capa_x0020_1">
  <metadata id="CorelCorpID_0Corel-Layer"/>
  <rect class="fil0" transform="matrix(1.86396E-14 -0.696445 8.11287 2.12623E-13 1.04889 194.598)" width="277.91" height="241.09"/>
  <rect class="fil1 str0" x="1.05" y="1.05" width="10.49" height="193.55"/>
  <rect class="fil1 str0" x="1783.92" y="1.05" width="10.49" height="193.55"/>
  <rect class="fil1 str0" x="1621.34" y="1.05" width="10.49" height="193.55"/>
  <rect class="fil1 str0" x="1458.76" y="1.05" width="10.49" height="193.48"/>
  <rect class="fil1 str0" x="1296.18" y="1.05" width="10.49" height="193.48"/>
  <rect class="fil1 str0" x="1133.6" y="1.05" width="10.49" height="193.48"/>
  <rect class="fil1 str0" x="1946.5" y="1.05" width="10.49" height="193.55"/>
  <rect class="fil1 str0" x="813.94" y="1.05" width="10.49" height="193.55"/>
  <rect class="fil1 str0" x="651.36" y="1.05" width="10.49" height="193.55"/>
  <rect class="fil1 str0" x="488.78" y="1.05" width="10.49" height="193.55"/>
  <rect class="fil1 str0" x="326.21" y="1.05" width="10.49" height="193.55"/>
  <rect class="fil1 str0" x="163.63" y="1.05" width="10.49" height="193.55"/>
  <rect class="fil1 str0" x="978.02" y="1.12" width="10.49" height="193.48"/>
  <rect class="fil1 str0" x="969.47" y="1.1" width="10.49" height="193.48"/>
  <rect class="fil1 str0" x="22.91" y="101.85" width="125.87" height="83.91"/>
  <rect class="fil1 str0" x="22.91" y="6.97" width="125.87" height="83.91"/>
  <rect class="fil1 str0" x="187.34" y="101.85" width="125.87" height="83.91"/>
  <rect class="fil1 str0" x="349.8" y="101.85" width="125.87" height="83.91"/>
  <rect class="fil1 str0" x="187.34" y="6.97" width="125.87" height="83.91"/>
  <rect class="fil1 str0" x="349.8" y="6.97" width="125.87" height="83.91"/>
  <rect class="fil1 str0" x="514.22" y="101.85" width="125.87" height="83.91"/>
  <rect class="fil1 str0" x="514.22" y="6.97" width="125.87" height="83.91"/>
  <rect class="fil1 str0" x="674.92" y="101.85" width="125.87" height="83.91"/>
  <rect class="fil1 str0" x="674.92" y="6.97" width="125.87" height="83.91"/>
  <rect class="fil1 str0" x="833.07" y="101.85" width="125.87" height="83.91"/>
  <rect class="fil1 str0" x="996.39" y="101.85" width="125.87" height="83.91"/>
  <rect class="fil1 str0" x="833.07" y="6.97" width="125.87" height="83.91"/>
  <rect class="fil1 str0" x="996.39" y="6.97" width="125.87" height="83.91"/>
  <rect class="fil1 str0" x="1155.4" y="101.85" width="125.87" height="83.91"/>
  <rect class="fil1 str0" x="1155.4" y="6.97" width="125.87" height="83.91"/>
  <rect class="fil1 str0" x="1321.04" y="101.85" width="125.87" height="83.91"/>
  <rect class="fil1 str0" x="1321.04" y="6.97" width="125.87" height="83.91"/>
  <rect class="fil1 str0" x="1483.44" y="101.85" width="125.87" height="83.91"/>
  <rect class="fil1 str0" x="1483.44" y="6.97" width="125.87" height="83.91"/>
  <rect class="fil1 str0" x="1643.15" y="101.85" width="125.87" height="83.91"/>
  <rect class="fil1 str0" x="1643.15" y="6.97" width="125.87" height="83.91"/>
  <rect class="fil1 str0" x="1808.79" y="101.85" width="125.87" height="83.91"/>
  <rect class="fil1 str0" x="1808.79" y="6.97" width="125.87" height="83.91"/>
 </g>
</svg>
